<?xml version="1.0" encoding="utf-8"?>
<!-- Generator: Adobe Illustrator 23.0.2, SVG Export Plug-In . SVG Version: 6.00 Build 0)  -->
<svg version="1.1" id="Layer_1" xmlns="http://www.w3.org/2000/svg" xmlns:xlink="http://www.w3.org/1999/xlink" x="0px" y="0px"
	 viewBox="0 0 366.6 167.2" style="enable-background:new 0 0 366.6 167.2;" xml:space="preserve">
<style type="text/css">
	.st0{fill:#6D6E71;}
	.st1{opacity:0.9;fill:#4580CF;enable-background:new    ;}
	.st2{fill:#2AB673;}
</style>
<g>
	<path class="st0" d="M7.7,140.1l0.7-1.4c0.9,0.8,2.5,1.4,4.1,1.4c2.1,0,3.1-0.8,3.1-1.9c0-3-7.5-1.1-7.5-5.7c0-1.9,1.5-3.5,4.7-3.5
		c1.5,0,3,0.4,4,1.1l-0.6,1.4c-1.1-0.7-2.3-1-3.4-1c-2.1,0-3,0.9-3,2c0,3,7.5,1.1,7.5,5.7c0,1.9-1.5,3.5-4.8,3.5
		C10.6,141.7,8.7,141,7.7,140.1z"/>
	<path class="st0" d="M25.7,137.2v4.3h-1.8v-4.3l-4.9-8.1h1.9l4,6.5l4-6.5h1.8L25.7,137.2z"/>
	<path class="st0" d="M32.3,140.1l0.7-1.4c0.9,0.8,2.5,1.4,4.1,1.4c2.1,0,3.1-0.8,3.1-1.9c0-3-7.5-1.1-7.5-5.7
		c0-1.9,1.5-3.5,4.7-3.5c1.5,0,3,0.4,4,1.1l-0.6,1.4c-1.1-0.7-2.3-1-3.4-1c-2.1,0-3,0.9-3,2c0,3,7.5,1.1,7.5,5.7
		c0,1.9-1.5,3.5-4.8,3.5C35.2,141.7,33.3,141,32.3,140.1z"/>
	<path class="st0" d="M48,130.7h-4.2v-1.5H54v1.5h-4.2v10.9H48V130.7z"/>
	<path class="st0" d="M66.3,140v1.5h-9v-12.4H66v1.5h-7v3.8h6.2v1.5H59v4L66.3,140L66.3,140z"/>
	<path class="st0" d="M82,141.5v-9l-4.5,7.5h-0.8l-4.5-7.5v9h-1.7v-12.4H72l5.2,8.7l5.1-8.7h1.5v12.4H82z"/>
	<path class="st0" d="M106.3,141.5v-9l-4.5,7.5H101l-4.5-7.5v9h-1.7v-12.4h1.5l5.2,8.7l5.1-8.7h1.5v12.4H106.3z"/>
	<path class="st0" d="M120.9,138.4h-6.6l-1.4,3.1h-1.8l5.6-12.4h1.8l5.6,12.4h-1.9L120.9,138.4z M120.3,137l-2.7-6.1L115,137H120.3z
		"/>
	<path class="st0" d="M138,129.1v12.4h-1.5l-7.4-9.2v9.2h-1.8v-12.4h1.5l7.4,9.2v-9.2H138z"/>
	<path class="st0" d="M150.9,138.4h-6.6l-1.4,3.1h-1.8l5.6-12.4h1.8l5.6,12.4h-1.9L150.9,138.4z M150.3,137l-2.7-6.1l-2.7,6.1H150.3
		z"/>
	<path class="st0" d="M165.7,135.3h1.7v4.8c-1.2,1-3,1.6-4.7,1.6c-3.8,0-6.6-2.7-6.6-6.3s2.8-6.3,6.6-6.3c2,0,3.6,0.7,4.8,1.9
		l-1.1,1.1c-1-1-2.2-1.4-3.6-1.4c-2.9,0-4.9,2-4.9,4.8c0,2.7,2.1,4.8,4.9,4.8c1,0,2-0.2,2.9-0.8L165.7,135.3L165.7,135.3z"/>
	<path class="st0" d="M181.1,140v1.5h-9v-12.4h8.7v1.5h-7v3.8h6.2v1.5h-6.2v4L181.1,140L181.1,140z"/>
	<path class="st0" d="M196.8,141.5v-9l-4.5,7.5h-0.8l-4.5-7.5v9h-1.7v-12.4h1.5l5.2,8.7l5.1-8.7h1.5v12.4H196.8z"/>
	<path class="st0" d="M212.5,140v1.5h-9v-12.4h8.7v1.5h-7v3.8h6.2v1.5h-6.2v4L212.5,140L212.5,140z"/>
	<path class="st0" d="M227.4,129.1v12.4h-1.5l-7.4-9.2v9.2h-1.8v-12.4h1.5l7.4,9.2v-9.2H227.4z"/>
	<path class="st0" d="M234.9,130.7h-4.2v-1.5h10.2v1.5h-4.2v10.9h-1.8V130.7z"/>
	<path class="st0" d="M260.2,133.5c0,2.7-1.9,4.3-5.2,4.3h-3v3.8h-1.8v-12.4h4.8C258.3,129.1,260.2,130.8,260.2,133.5z M258.5,133.5
		c0-1.8-1.2-2.8-3.5-2.8h-3v5.6h3C257.3,136.2,258.5,135.2,258.5,133.5z"/>
	<path class="st0" d="M264.2,129.1h1.8V140h6.7v1.5h-8.5V129.1z"/>
	<path class="st0" d="M283.9,138.4h-6.6l-1.4,3.1h-1.8l5.6-12.4h1.8l5.6,12.4h-1.9L283.9,138.4z M283.3,137l-2.7-6.1L278,137H283.3z
		"/>
	<path class="st0" d="M292.2,130.7H288v-1.5h10.2v1.5H294v10.9h-1.8V130.7z"/>
	<path class="st0" d="M303.2,130.7v4.3h6.2v1.5h-6.2v5h-1.8v-12.4h8.7v1.5L303.2,130.7L303.2,130.7z"/>
	<path class="st0" d="M312.8,135.3c0-3.6,2.8-6.3,6.6-6.3c3.8,0,6.6,2.7,6.6,6.3s-2.8,6.3-6.6,6.3
		C315.6,141.7,312.8,139,312.8,135.3z M324.2,135.3c0-2.7-2.1-4.8-4.8-4.8c-2.8,0-4.8,2-4.8,4.8c0,2.7,2.1,4.8,4.8,4.8
		C322.2,140.1,324.2,138.1,324.2,135.3z"/>
	<path class="st0" d="M338.3,141.5l-2.7-3.8c-0.2,0-0.5,0-0.8,0h-3.1v3.8H330v-12.4h4.8c3.2,0,5.2,1.6,5.2,4.3c0,1.9-1,3.3-2.7,3.9
		l2.9,4.2H338.3z M338.3,133.5c0-1.8-1.2-2.8-3.5-2.8h-3v5.6h3C337.1,136.3,338.3,135.2,338.3,133.5z"/>
	<path class="st0" d="M355.7,141.5v-9l-4.5,7.5h-0.8l-4.5-7.5v9h-1.7v-12.4h1.5l5.2,8.7l5.1-8.7h1.5v12.4H355.7z"/>
</g>
<path class="st1" d="M358.2,75.7V115h-28.5V80.6c0-8.6-3.3-11.9-8.5-11.9c-5.8,0-10.7,3.7-10.7,13.9V115H282V46h27.1v6.8
	c5.4-5.4,12.7-8.1,20.8-8.1C345.8,44.8,358.2,54,358.2,75.7z"/>
<path class="st1" d="M256.2,26c0-8.2,6.7-14.5,17.2-14.5s17.2,5.8,17.2,14c0,8.7-6.7,15-17.2,15S256.2,34.2,256.2,26z M259.1,46
	h28.5v69h-28.5V46z"/>
<path class="st1" d="M265.8,75.7V115h-28.5V80.6c0-8.6-3.2-11.9-7.7-11.9c-5,0-9,3.4-9,12.6V115h-28.5V80.6c0-8.6-2.9-11.9-7.7-11.9
	c-5,0-9,3.4-9,12.6V115h-28.5V46H174v6.4c5.2-5.2,12-7.7,19.6-7.7c9,0,16.8,3.3,21.6,10.5c5.6-6.7,13.6-10.5,23.1-10.5
	C253.9,44.8,265.8,54,265.8,75.7z"/>
<path class="st1" d="M157.6,21.4V115h-27.1v-5.7c-4.2,4.7-10.3,6.9-18.9,6.9c-18,0-33.3-13.6-33.3-35.8s15.3-35.7,33.3-35.7
	c7.6,0,13.4,1.9,17.5,5.9V21.4H157.6z M129.6,80.5c0-9-4.9-13.5-11.2-13.5c-6.3,0-11.2,4.5-11.2,13.5s4.9,13.6,11.2,13.6
	C124.7,94.1,129.6,89.5,129.6,80.5z"/>
<path class="st1" d="M94.1,68v47H64.3V97.2h-28V115H7V68c0-27.6,17.8-43.3,43.5-43.3S94.1,40.3,94.1,68z M64.3,74.8v-9.3
	c0-11.4-5.9-16.7-14-16.7s-14,5.3-14,16.7v9.3H64.3z"/>
<g>
	<path class="st2" d="M341.3,150.5l-2.8,6.3h-0.9l-2.8-6.3h0.9l2.4,5.4l2.4-5.4H341.3z"/>
	<path class="st2" d="M344.4,148.4v8.4h-0.9v-7.6h-2v-0.8H344.4z"/>
	<path class="st2" d="M346.4,156.2c0-0.4,0.3-0.6,0.6-0.6s0.6,0.3,0.6,0.6s-0.3,0.7-0.6,0.7S346.4,156.6,346.4,156.2z"/>
	<path class="st2" d="M348.8,152.6c0-2.7,1.4-4.3,3.3-4.3c1.9,0,3.4,1.6,3.4,4.3c0,2.7-1.4,4.3-3.4,4.3
		C350.2,156.9,348.8,155.3,348.8,152.6z M354.6,152.6c0-2.2-1-3.5-2.5-3.5s-2.5,1.2-2.5,3.5c0,2.2,1,3.5,2.5,3.5
		S354.6,154.8,354.6,152.6z"/>
</g>
</svg>
